<mxfile host="65bd71144e">
    <diagram id="jddfhAGOJ9b43RQDCkcR" name="Page-1">
        <mxGraphModel dx="1130" dy="769" grid="0" gridSize="10" guides="1" tooltips="1" connect="1" arrows="1" fold="1" page="1" pageScale="1" pageWidth="850" pageHeight="1100" math="0" shadow="0">
            <root>
                <mxCell id="0"/>
                <mxCell id="1" parent="0"/>
                <mxCell id="18" value="Header" style="rounded=1;whiteSpace=wrap;html=1;fillColor=#60a917;fontColor=#ffffff;strokeColor=#2D7600;shadow=1;" parent="1" vertex="1">
                    <mxGeometry x="201.5" y="153" width="430.5" height="46" as="geometry"/>
                </mxCell>
                <mxCell id="19" value="Hero Section" style="rounded=1;whiteSpace=wrap;html=1;fillColor=#6a00ff;fontColor=#ffffff;strokeColor=#3700CC;shadow=1;gradientColor=none;" parent="1" vertex="1">
                    <mxGeometry x="202.5" y="213" width="430.5" height="106" as="geometry"/>
                </mxCell>
                <mxCell id="21" value="Footer" style="rounded=1;whiteSpace=wrap;html=1;fillColor=#d80073;fontColor=#ffffff;strokeColor=#A50040;shadow=1;" parent="1" vertex="1">
                    <mxGeometry x="205" y="748" width="434" height="42" as="geometry"/>
                </mxCell>
                <mxCell id="23" value="&lt;h2&gt;App Layout&lt;/h2&gt;" style="text;html=1;strokeColor=none;fillColor=none;align=left;verticalAlign=middle;whiteSpace=wrap;rounded=1;" parent="1" vertex="1">
                    <mxGeometry x="202.5" y="109" width="190" height="30" as="geometry"/>
                </mxCell>
                <mxCell id="24" value="Quem Sou" style="rounded=1;whiteSpace=wrap;html=1;fillColor=#76608a;fontColor=#ffffff;strokeColor=#432D57;shadow=1;" parent="1" vertex="1">
                    <mxGeometry x="201.5" y="332" width="434.5" height="121" as="geometry"/>
                </mxCell>
                <mxCell id="27" value="Contact" style="rounded=1;whiteSpace=wrap;html=1;fillColor=#a0522d;fontColor=#ffffff;strokeColor=#6D1F00;shadow=1;" parent="1" vertex="1">
                    <mxGeometry x="202" y="648" width="437" height="90" as="geometry"/>
                </mxCell>
                <mxCell id="28" value="Timeline / Work" style="rounded=1;whiteSpace=wrap;html=1;fillColor=#a20025;strokeColor=#6F0000;shadow=1;fontColor=#ffffff;" parent="1" vertex="1">
                    <mxGeometry x="202.5" y="464" width="433.5" height="174" as="geometry"/>
                </mxCell>
            </root>
        </mxGraphModel>
    </diagram>
</mxfile>